<svg width="15" height="15" viewBox="0 0 15 15" fill="none" xmlns="http://www.w3.org/2000/svg">
<path d="M9.125 5H13.125C13.4565 5 13.7745 5.1317 14.0089 5.36612C14.2433 5.60054 14.375 5.91848 14.375 6.25V7.565C14.3752 7.72835 14.3433 7.89015 14.2813 8.04125L12.3469 12.7381C12.2997 12.8526 12.2195 12.9505 12.1166 13.0194C12.0137 13.0883 11.8926 13.1251 11.7688 13.125H1.25C1.08424 13.125 0.925268 13.0592 0.808058 12.9419C0.690848 12.8247 0.625 12.6658 0.625 12.5V6.25C0.625 6.08424 0.690848 5.92527 0.808058 5.80806C0.925268 5.69085 1.08424 5.625 1.25 5.625H3.42625C3.52631 5.62503 3.62491 5.60103 3.71377 5.55502C3.80263 5.50902 3.87914 5.44235 3.93688 5.36063L7.345 0.531251C7.38808 0.470196 7.45162 0.426601 7.52409 0.40837C7.59655 0.390138 7.67315 0.398478 7.74 0.431876L8.87375 0.998751C9.19281 1.15823 9.44771 1.42207 9.59608 1.74645C9.74446 2.07082 9.77738 2.4362 9.68938 2.78188L9.125 5ZM4.375 6.6175V11.875H11.35L13.125 7.565V6.25H9.125C8.93463 6.24997 8.74677 6.20646 8.57577 6.12279C8.40477 6.03911 8.25514 5.91748 8.1383 5.76718C8.02146 5.61688 7.94049 5.44187 7.90157 5.25552C7.86266 5.06916 7.86682 4.87638 7.91375 4.69188L8.47813 2.47438C8.49579 2.40521 8.48924 2.33207 8.45956 2.26714C8.42988 2.20222 8.37886 2.14941 8.315 2.1175L7.90188 1.91125L4.95813 6.08125C4.80188 6.3025 4.60188 6.48375 4.375 6.6175V6.6175ZM3.125 6.875H1.875V11.875H3.125V6.875Z" fill="#999999"/>
</svg>
