<svg width="15" height="15" viewBox="0 0 15 15" fill="none" xmlns="http://www.w3.org/2000/svg">
<g clip-path="url(#clip0_657_5696)">
<path d="M1.625 4.89985H3.5V12.3998H1.625C1.45924 12.3998 1.30027 12.334 1.18306 12.2168C1.06585 12.0996 1 11.9406 1 11.7748V5.52485C1 5.35909 1.06585 5.20012 1.18306 5.08291C1.30027 4.9657 1.45924 4.89985 1.625 4.89985ZM4.93313 4.09172L8.93313 0.091725C8.98629 0.0384087 9.05691 0.00607923 9.13201 0.000682214C9.20711 -0.0047148 9.28163 0.0171835 9.34188 0.0623499L9.875 0.46235C10.0231 0.573503 10.1349 0.726008 10.1964 0.900635C10.2579 1.07526 10.2663 1.26419 10.2206 1.4436L9.5 4.27485H13.5C13.8315 4.27485 14.1495 4.40655 14.3839 4.64097C14.6183 4.87539 14.75 5.19333 14.75 5.52485V6.83985C14.7502 7.0032 14.7183 7.165 14.6562 7.3161L12.7219 12.013C12.6747 12.1275 12.5945 12.2254 12.4916 12.2943C12.3887 12.3632 12.2676 12.3999 12.1438 12.3998H5.375C5.20924 12.3998 5.05027 12.334 4.93306 12.2168C4.81585 12.0996 4.75 11.9406 4.75 11.7748V4.5336C4.75004 4.36785 4.81591 4.20891 4.93313 4.09172Z" fill="#333333"/>
</g>
<defs>
<clipPath id="clip0_657_5696">
<rect width="15" height="15" fill="white"/>
</clipPath>
</defs>
</svg>
