<svg width="24" height="24" viewBox="0 0 24 24" fill="none" xmlns="http://www.w3.org/2000/svg">
<path d="M21.5625 6.75H3.1875C3.08437 6.75 3 6.83437 3 6.9375V8.4375C3 8.54062 3.08437 8.625 3.1875 8.625H21.5625C21.6656 8.625 21.75 8.54062 21.75 8.4375V6.9375C21.75 6.83437 21.6656 6.75 21.5625 6.75ZM21.5625 16.375H3.1875C3.08437 16.375 3 16.4594 3 16.5625V18.0625C3 18.1656 3.08437 18.25 3.1875 18.25H21.5625C21.6656 18.25 21.75 18.1656 21.75 18.0625V16.5625C21.75 16.4594 21.6656 16.375 21.5625 16.375Z" fill="#555555"/>
<circle cx="9.875" cy="7.5" r="2.5" fill="white" stroke="#555555" stroke-width="2"/>
<circle cx="14.875" cy="17.5" r="2.5" fill="white" stroke="#555555" stroke-width="2"/>
</svg>
