<svg width="20" height="20" viewBox="0 0 20 20" fill="none" xmlns="http://www.w3.org/2000/svg">
<path d="M5.83341 18.3334H3.33341C2.89139 18.3334 2.46746 18.1578 2.1549 17.8452C1.84234 17.5326 1.66675 17.1087 1.66675 16.6667V10.8334C1.66675 10.3913 1.84234 9.9674 2.1549 9.65484C2.46746 9.34228 2.89139 9.16669 3.33341 9.16669H5.83341M11.6667 7.50002V4.16669C11.6667 3.50365 11.4034 2.86776 10.9345 2.39892C10.4657 1.93008 9.82979 1.66669 9.16675 1.66669L5.83341 9.16669V18.3334H15.2334C15.6354 18.3379 16.0254 18.197 16.3317 17.9367C16.6379 17.6764 16.8398 17.3141 16.9001 16.9167L18.0501 9.41669C18.0863 9.17782 18.0702 8.93392 18.0029 8.7019C17.9355 8.46987 17.8185 8.25527 17.66 8.07295C17.5014 7.89063 17.3051 7.74496 17.0847 7.64603C16.8643 7.54711 16.625 7.49728 16.3834 7.50002H11.6667Z" stroke="#222222" stroke-width="1.5" stroke-linecap="round" stroke-linejoin="round"/>
</svg>
