<svg width="54" height="22" viewBox="0 0 54 22" fill="none" xmlns="http://www.w3.org/2000/svg">
<rect opacity="0.3" x="0.5" y="0.5" width="53" height="21" rx="4.5" stroke="white"/>
<path d="M13.5723 10.1865V11.0361H8.69922V10.1865H13.5723ZM11.5898 8.11133V13.2871H10.6865V8.11133H11.5898ZM18.2402 6.89062V14H17.2979V6.89062H18.2402ZM21.2188 10.0889V10.8604H18.0352V10.0889H21.2188ZM21.7021 6.89062V7.66211H18.0352V6.89062H21.7021ZM22.3418 11.417V11.3047C22.3418 10.9238 22.3971 10.5706 22.5078 10.2451C22.6185 9.91634 22.778 9.63151 22.9863 9.39062C23.1947 9.14648 23.4469 8.95768 23.7432 8.82422C24.0394 8.6875 24.3714 8.61914 24.7393 8.61914C25.1104 8.61914 25.444 8.6875 25.7402 8.82422C26.0397 8.95768 26.2936 9.14648 26.502 9.39062C26.7135 9.63151 26.8747 9.91634 26.9854 10.2451C27.096 10.5706 27.1514 10.9238 27.1514 11.3047V11.417C27.1514 11.7979 27.096 12.151 26.9854 12.4766C26.8747 12.8021 26.7135 13.0869 26.502 13.3311C26.2936 13.5719 26.0413 13.7607 25.7451 13.8975C25.4521 14.0309 25.1201 14.0977 24.749 14.0977C24.3779 14.0977 24.0443 14.0309 23.748 13.8975C23.4518 13.7607 23.1979 13.5719 22.9863 13.3311C22.778 13.0869 22.6185 12.8021 22.5078 12.4766C22.3971 12.151 22.3418 11.7979 22.3418 11.417ZM23.2451 11.3047V11.417C23.2451 11.6807 23.276 11.9297 23.3379 12.1641C23.3997 12.3952 23.4925 12.6003 23.6162 12.7793C23.7432 12.9583 23.901 13.0999 24.0898 13.2041C24.2786 13.305 24.4984 13.3555 24.749 13.3555C24.9964 13.3555 25.2129 13.305 25.3984 13.2041C25.5872 13.0999 25.7435 12.9583 25.8672 12.7793C25.9909 12.6003 26.0837 12.3952 26.1455 12.1641C26.2106 11.9297 26.2432 11.6807 26.2432 11.417V11.3047C26.2432 11.0443 26.2106 10.7985 26.1455 10.5674C26.0837 10.333 25.9893 10.1263 25.8623 9.94727C25.7386 9.76497 25.5824 9.62174 25.3936 9.51758C25.208 9.41341 24.9899 9.36133 24.7393 9.36133C24.4919 9.36133 24.2738 9.41341 24.085 9.51758C23.8994 9.62174 23.7432 9.76497 23.6162 9.94727C23.4925 10.1263 23.3997 10.333 23.3379 10.5674C23.276 10.7985 23.2451 11.0443 23.2451 11.3047ZM29.2656 6.5V14H28.3574V6.5H29.2656ZM31.6973 6.5V14H30.7891V6.5H31.6973ZM32.9082 11.417V11.3047C32.9082 10.9238 32.9635 10.5706 33.0742 10.2451C33.1849 9.91634 33.3444 9.63151 33.5527 9.39062C33.7611 9.14648 34.0133 8.95768 34.3096 8.82422C34.6058 8.6875 34.9378 8.61914 35.3057 8.61914C35.6768 8.61914 36.0104 8.6875 36.3066 8.82422C36.6061 8.95768 36.86 9.14648 37.0684 9.39062C37.2799 9.63151 37.4411 9.91634 37.5518 10.2451C37.6624 10.5706 37.7178 10.9238 37.7178 11.3047V11.417C37.7178 11.7979 37.6624 12.151 37.5518 12.4766C37.4411 12.8021 37.2799 13.0869 37.0684 13.3311C36.86 13.5719 36.6077 13.7607 36.3115 13.8975C36.0186 14.0309 35.6865 14.0977 35.3154 14.0977C34.9443 14.0977 34.6107 14.0309 34.3145 13.8975C34.0182 13.7607 33.7643 13.5719 33.5527 13.3311C33.3444 13.0869 33.1849 12.8021 33.0742 12.4766C32.9635 12.151 32.9082 11.7979 32.9082 11.417ZM33.8115 11.3047V11.417C33.8115 11.6807 33.8424 11.9297 33.9043 12.1641C33.9661 12.3952 34.0589 12.6003 34.1826 12.7793C34.3096 12.9583 34.4674 13.0999 34.6562 13.2041C34.8451 13.305 35.0648 13.3555 35.3154 13.3555C35.5628 13.3555 35.7793 13.305 35.9648 13.2041C36.1536 13.0999 36.3099 12.9583 36.4336 12.7793C36.5573 12.6003 36.6501 12.3952 36.7119 12.1641C36.777 11.9297 36.8096 11.6807 36.8096 11.417V11.3047C36.8096 11.0443 36.777 10.7985 36.7119 10.5674C36.6501 10.333 36.5557 10.1263 36.4287 9.94727C36.305 9.76497 36.1488 9.62174 35.96 9.51758C35.7744 9.41341 35.5563 9.36133 35.3057 9.36133C35.0583 9.36133 34.8402 9.41341 34.6514 9.51758C34.4658 9.62174 34.3096 9.76497 34.1826 9.94727C34.0589 10.1263 33.9661 10.333 33.9043 10.5674C33.8424 10.7985 33.8115 11.0443 33.8115 11.3047ZM40.1885 13.0625L41.5459 8.7168H42.1416L42.0244 9.58105L40.6426 14H40.0615L40.1885 13.0625ZM39.2754 8.7168L40.4326 13.1113L40.5156 14H39.9053L38.3721 8.7168H39.2754ZM43.4404 13.0771L44.5439 8.7168H45.4424L43.9092 14H43.3037L43.4404 13.0771ZM42.2734 8.7168L43.6016 12.9893L43.7529 14H43.1768L41.7559 9.57129L41.6387 8.7168H42.2734Z" fill="white"/>
</svg>
