<svg width="36" height="36" viewBox="0 0 36 36" fill="none" xmlns="http://www.w3.org/2000/svg">
<path d="M19.4446 22.8318L14.7604 20.277C14.3108 20.7233 13.7391 21.0266 13.1174 21.1484C12.4957 21.2703 11.8518 21.2054 11.267 20.9619C10.6821 20.7183 10.1824 20.3071 9.83093 19.78C9.47944 19.2529 9.29187 18.6336 9.29187 18C9.29187 17.3665 9.47944 16.7471 9.83093 16.22C10.1824 15.6929 10.6821 15.2817 11.267 15.0382C11.8518 14.7947 12.4957 14.7297 13.1174 14.8516C13.7391 14.9735 14.3108 15.2767 14.7604 15.723L19.4446 13.1683C19.284 12.4145 19.4 11.6281 19.7715 10.9529C20.143 10.2777 20.7451 9.75876 21.4678 9.491C22.1904 9.22324 22.9853 9.22456 23.7071 9.49472C24.4289 9.76487 25.0293 10.2858 25.3986 10.9623C25.7678 11.6387 25.8812 12.4255 25.7181 13.1787C25.5549 13.9319 25.1261 14.6012 24.51 15.0642C23.8939 15.5272 23.1318 15.753 22.3629 15.7003C21.5941 15.6475 20.8699 15.3198 20.3228 14.777L15.6386 17.3318C15.732 17.7724 15.732 18.2277 15.6386 18.6683L20.3228 21.223C20.8699 20.6802 21.5941 20.3525 22.3629 20.2998C23.1318 20.247 23.8939 20.4728 24.51 20.9358C25.1261 21.3988 25.5549 22.0682 25.7181 22.8214C25.8812 23.5746 25.7678 24.3613 25.3986 25.0378C25.0293 25.7142 24.4289 26.2352 23.7071 26.5053C22.9853 26.7755 22.1904 26.7768 21.4678 26.509C20.7451 26.2413 20.143 25.7223 19.7715 25.0471C19.4 24.3719 19.284 23.5855 19.4446 22.8318Z" fill="white"/>
</svg>
