<svg width="36" height="36" viewBox="0 0 36 36" fill="none" xmlns="http://www.w3.org/2000/svg">
<path d="M27.5625 12.75H9.1875C9.08437 12.75 9 12.8344 9 12.9375V14.4375C9 14.5406 9.08437 14.625 9.1875 14.625H27.5625C27.6656 14.625 27.75 14.5406 27.75 14.4375V12.9375C27.75 12.8344 27.6656 12.75 27.5625 12.75ZM27.5625 22.375H9.1875C9.08437 22.375 9 22.4594 9 22.5625V24.0625C9 24.1656 9.08437 24.25 9.1875 24.25H27.5625C27.6656 24.25 27.75 24.1656 27.75 24.0625V22.5625C27.75 22.4594 27.6656 22.375 27.5625 22.375Z" fill="white"/>
<circle cx="15.875" cy="13.5" r="2.5" fill="white" stroke="white" stroke-width="2"/>
<circle cx="20.875" cy="23.5" r="2.5" fill="white" stroke="white" stroke-width="2"/>
</svg>
